<svg width="150" height="143" viewBox="0 0 150 143" fill="none" xmlns="http://www.w3.org/2000/svg">
<path d="M66.4404 7.5791C69.1348 -0.712216 80.8652 -0.712214 83.5596 7.5791L94.2549 40.4971C95.7275 45.0293 99.9513 48.0986 104.717 48.0986H139.329C148.047 48.0989 151.672 59.2553 144.619 64.3799L116.617 84.7236C112.762 87.5247 111.148 92.4902 112.621 97.0225L123.317 129.94C126.011 138.232 116.521 145.127 109.468 140.003L81.4658 119.658C77.6105 116.857 72.3895 116.857 68.5342 119.658L40.5322 140.003C33.479 145.127 23.9889 138.232 26.6826 129.94L37.3789 97.0225C38.8515 92.4902 37.2382 87.5247 33.3828 84.7236L5.38086 64.3799C-1.67248 59.2553 1.95259 48.0989 10.6709 48.0986H45.2832C49.8998 48.0986 54.0076 45.2185 55.5986 40.918L55.7451 40.4971L66.4404 7.5791Z" fill="url(#paint0_linear_4_9)" stroke="black" stroke-width="2"/>
<defs>
<linearGradient id="paint0_linear_4_9" x1="128" y1="23" x2="30.5" y2="138" gradientUnits="userSpaceOnUse">
<stop stop-color="#00478E"/>
<stop offset="1" stop-color="#59ACFF"/>
</linearGradient>
</defs>
</svg>
